<?xml version="1.0" standalone="no"?>
<!DOCTYPE svg PUBLIC "-//W3C//DTD SVG 20010904//EN"
 "http://www.w3.org/TR/2001/REC-SVG-20010904/DTD/svg10.dtd">
<svg version="1.0" xmlns="http://www.w3.org/2000/svg"
 width="512.000000pt" height="512.000000pt" viewBox="0 0 512.000000 512.000000"
 preserveAspectRatio="xMidYMid meet">

<g transform="translate(0.000000,512.000000) scale(0.100000,-0.100000)"
fill="#000000" stroke="none">
<path d="M381 5100 c-161 -43 -283 -154 -349 -317 l-27 -68 0 -2155 0 -2155
27 -68 c61 -153 175 -262 328 -313 53 -18 134 -19 2205 -19 l2150 0 59 23
c123 46 240 149 290 256 60 126 57 -10 54 2308 l-3 2123 -27 68 c-34 83 -71
138 -134 198 -68 63 -128 96 -219 119 -77 20 -110 20 -2179 19 -2045 0 -2103
-1 -2175 -19z m2469 -954 c0 -2 259 -718 575 -1591 316 -873 575 -1589 575
-1591 0 -2 -128 -4 -284 -4 l-283 0 -124 342 -124 343 -620 0 -620 0 -124
-343 -124 -342 -283 0 c-156 0 -284 2 -284 4 0 6 1151 3170 1156 3178 5 8 564
12 564 4z"/>
<path d="M2339 2754 c-123 -345 -225 -630 -227 -635 -2 -5 195 -9 453 -9 431
0 457 1 450 18 -3 9 -106 294 -227 632 -121 338 -221 616 -222 617 -1 2 -103
-279 -227 -623z"/>
</g>
</svg>
