<svg width="1008" height="635" viewBox="0 0 1008 635" fill="none" xmlns="http://www.w3.org/2000/svg">
<g id="Device - Macbook Pro">
<g id="Shadow" filter="url(#filter0_f_235_960)">
<ellipse cx="504.5" cy="586" rx="452.5" ry="5" fill="black"/>
</g>
<g id="Top">
<path id="Lid" d="M126 1H886C900.912 1 913 13.0883 913 28V550C913 551.657 911.657 553 910 553H102C100.343 553 99 551.657 99 550V28C99 13.0883 111.088 1 126 1Z" fill="#1A202C" stroke="#4A5568" stroke-width="2"/>
<path id="Dark Screen" d="M103 27C103 14.8497 112.85 5 125 5H887C899.15 5 909 14.8497 909 27V533H103V27Z" fill="black"/>
<g id="Screen Wrap">
<rect id="Screen" x="119" y="31" width="770" height="480" fill="black"/>
</g>
<path id="Macbook Pro" d="M464.173 535.545H466.269L469.075 542.396H469.186L471.993 535.545H474.089V545H472.445V538.505H472.358L469.745 544.972H468.517L465.904 538.491H465.816V545H464.173V535.545ZM477.921 545.143C477.471 545.143 477.067 545.063 476.706 544.903C476.349 544.74 476.066 544.5 475.857 544.183C475.651 543.866 475.548 543.475 475.548 543.01C475.548 542.61 475.622 542.279 475.769 542.018C475.917 541.756 476.119 541.547 476.374 541.39C476.63 541.233 476.917 541.114 477.237 541.034C477.561 540.951 477.894 540.891 478.239 540.854C478.655 540.811 478.992 540.773 479.25 540.739C479.509 540.702 479.696 540.647 479.813 540.573C479.933 540.496 479.993 540.377 479.993 540.217V540.19C479.993 539.842 479.89 539.573 479.684 539.382C479.478 539.191 479.181 539.096 478.793 539.096C478.384 539.096 478.059 539.185 477.819 539.363C477.582 539.542 477.422 539.753 477.339 539.996L475.779 539.774C475.902 539.343 476.105 538.983 476.388 538.694C476.671 538.402 477.017 538.183 477.427 538.038C477.836 537.891 478.288 537.817 478.784 537.817C479.126 537.817 479.466 537.857 479.804 537.937C480.143 538.017 480.452 538.149 480.732 538.334C481.012 538.515 481.237 538.763 481.406 539.077C481.578 539.391 481.665 539.783 481.665 540.254V545H480.058V544.026H480.003C479.901 544.223 479.758 544.408 479.573 544.58C479.392 544.749 479.162 544.886 478.885 544.991C478.612 545.092 478.29 545.143 477.921 545.143ZM478.355 543.915C478.69 543.915 478.981 543.849 479.227 543.717C479.473 543.581 479.663 543.403 479.795 543.181C479.93 542.96 479.998 542.718 479.998 542.456V541.621C479.946 541.664 479.856 541.704 479.73 541.741C479.607 541.778 479.469 541.81 479.315 541.838C479.161 541.865 479.009 541.89 478.858 541.912C478.707 541.933 478.576 541.952 478.465 541.967C478.216 542.001 477.993 542.056 477.796 542.133C477.599 542.21 477.444 542.318 477.33 542.456C477.216 542.592 477.159 542.767 477.159 542.983C477.159 543.29 477.271 543.523 477.496 543.68C477.721 543.837 478.007 543.915 478.355 543.915ZM486.438 545.138C485.73 545.138 485.122 544.983 484.615 544.672C484.11 544.361 483.72 543.932 483.447 543.384C483.176 542.833 483.04 542.199 483.04 541.482C483.04 540.762 483.179 540.127 483.456 539.576C483.733 539.022 484.124 538.591 484.628 538.283C485.136 537.972 485.736 537.817 486.429 537.817C487.004 537.817 487.514 537.923 487.957 538.135C488.403 538.345 488.759 538.642 489.023 539.026C489.288 539.408 489.439 539.854 489.476 540.365H487.878C487.814 540.023 487.66 539.739 487.417 539.511C487.177 539.28 486.855 539.165 486.452 539.165C486.11 539.165 485.81 539.257 485.552 539.442C485.293 539.623 485.092 539.885 484.947 540.227C484.805 540.568 484.735 540.978 484.735 541.455C484.735 541.938 484.805 542.353 484.947 542.701C485.088 543.046 485.287 543.312 485.542 543.5C485.801 543.684 486.104 543.777 486.452 543.777C486.698 543.777 486.918 543.73 487.112 543.638C487.309 543.543 487.474 543.406 487.606 543.227C487.738 543.049 487.829 542.832 487.878 542.576H489.476C489.436 543.078 489.288 543.523 489.032 543.911C488.777 544.295 488.429 544.597 487.989 544.815C487.549 545.031 487.032 545.138 486.438 545.138ZM490.922 545V535.545H492.593V539.082H492.662C492.748 538.909 492.87 538.726 493.027 538.532C493.184 538.335 493.396 538.168 493.664 538.029C493.932 537.888 494.273 537.817 494.689 537.817C495.237 537.817 495.731 537.957 496.171 538.237C496.614 538.514 496.965 538.925 497.223 539.469C497.485 540.011 497.616 540.676 497.616 541.464C497.616 542.242 497.488 542.904 497.233 543.449C496.977 543.994 496.629 544.409 496.189 544.695C495.749 544.982 495.251 545.125 494.693 545.125C494.287 545.125 493.95 545.057 493.682 544.922C493.415 544.786 493.199 544.623 493.036 544.432C492.876 544.238 492.751 544.055 492.662 543.883H492.565V545H490.922ZM492.561 541.455C492.561 541.913 492.625 542.315 492.755 542.659C492.887 543.004 493.076 543.273 493.322 543.467C493.572 543.658 493.873 543.754 494.227 543.754C494.597 543.754 494.906 543.655 495.155 543.458C495.404 543.258 495.592 542.986 495.718 542.641C495.848 542.293 495.912 541.898 495.912 541.455C495.912 541.014 495.849 540.624 495.723 540.282C495.597 539.94 495.409 539.673 495.16 539.479C494.91 539.285 494.6 539.188 494.227 539.188C493.87 539.188 493.567 539.282 493.318 539.469C493.068 539.657 492.879 539.92 492.75 540.259C492.624 540.597 492.561 540.996 492.561 541.455ZM502.129 545.138C501.437 545.138 500.837 544.986 500.329 544.681C499.821 544.377 499.427 543.951 499.147 543.403C498.87 542.855 498.732 542.215 498.732 541.482C498.732 540.75 498.87 540.108 499.147 539.557C499.427 539.006 499.821 538.578 500.329 538.274C500.837 537.969 501.437 537.817 502.129 537.817C502.822 537.817 503.422 537.969 503.93 538.274C504.438 538.578 504.83 539.006 505.107 539.557C505.387 540.108 505.527 540.75 505.527 541.482C505.527 542.215 505.387 542.855 505.107 543.403C504.83 543.951 504.438 544.377 503.93 544.681C503.422 544.986 502.822 545.138 502.129 545.138ZM502.139 543.8C502.514 543.8 502.828 543.697 503.08 543.49C503.333 543.281 503.521 543.001 503.644 542.65C503.77 542.299 503.833 541.908 503.833 541.478C503.833 541.044 503.77 540.651 503.644 540.3C503.521 539.946 503.333 539.665 503.08 539.456C502.828 539.246 502.514 539.142 502.139 539.142C501.754 539.142 501.434 539.246 501.178 539.456C500.926 539.665 500.737 539.946 500.611 540.3C500.488 540.651 500.426 541.044 500.426 541.478C500.426 541.908 500.488 542.299 500.611 542.65C500.737 543.001 500.926 543.281 501.178 543.49C501.434 543.697 501.754 543.8 502.139 543.8ZM510.039 545.138C509.346 545.138 508.746 544.986 508.238 544.681C507.73 544.377 507.336 543.951 507.056 543.403C506.779 542.855 506.641 542.215 506.641 541.482C506.641 540.75 506.779 540.108 507.056 539.557C507.336 539.006 507.73 538.578 508.238 538.274C508.746 537.969 509.346 537.817 510.039 537.817C510.731 537.817 511.331 537.969 511.839 538.274C512.347 538.578 512.739 539.006 513.016 539.557C513.296 540.108 513.436 540.75 513.436 541.482C513.436 542.215 513.296 542.855 513.016 543.403C512.739 543.951 512.347 544.377 511.839 544.681C511.331 544.986 510.731 545.138 510.039 545.138ZM510.048 543.8C510.423 543.8 510.737 543.697 510.99 543.49C511.242 543.281 511.43 543.001 511.553 542.65C511.679 542.299 511.742 541.908 511.742 541.478C511.742 541.044 511.679 540.651 511.553 540.3C511.43 539.946 511.242 539.665 510.99 539.456C510.737 539.246 510.423 539.142 510.048 539.142C509.663 539.142 509.343 539.246 509.088 539.456C508.835 539.665 508.646 539.946 508.52 540.3C508.397 540.651 508.335 541.044 508.335 541.478C508.335 541.908 508.397 542.299 508.52 542.65C508.646 543.001 508.835 543.281 509.088 543.49C509.343 543.697 509.663 543.8 510.048 543.8ZM516.378 542.775L516.374 540.757H516.641L519.19 537.909H521.142L518.008 541.399H517.662L516.378 542.775ZM514.855 545V535.545H516.526V545H514.855ZM519.305 545L516.997 541.773L518.123 540.596L521.304 545H519.305ZM525.555 545V535.545H529.1C529.826 535.545 530.436 535.681 530.928 535.952C531.424 536.223 531.798 536.595 532.05 537.069C532.305 537.54 532.433 538.075 532.433 538.675C532.433 539.282 532.305 539.82 532.05 540.291C531.795 540.762 531.418 541.133 530.919 541.404C530.42 541.672 529.806 541.805 529.077 541.805H526.727V540.397H528.846C529.271 540.397 529.619 540.324 529.889 540.176C530.16 540.028 530.36 539.825 530.49 539.566C530.622 539.308 530.688 539.011 530.688 538.675C530.688 538.34 530.622 538.045 530.49 537.789C530.36 537.534 530.159 537.335 529.885 537.194C529.614 537.049 529.265 536.977 528.837 536.977H527.267V545H525.555ZM533.847 545V537.909H535.467V539.091H535.541C535.67 538.682 535.892 538.366 536.206 538.145C536.523 537.92 536.885 537.808 537.291 537.808C537.383 537.808 537.486 537.812 537.6 537.821C537.717 537.828 537.814 537.838 537.891 537.854V539.391C537.82 539.366 537.708 539.345 537.554 539.326C537.403 539.305 537.257 539.294 537.115 539.294C536.811 539.294 536.537 539.36 536.294 539.493C536.054 539.622 535.864 539.802 535.726 540.033C535.587 540.263 535.518 540.53 535.518 540.831V545H533.847ZM541.802 545.138C541.11 545.138 540.51 544.986 540.002 544.681C539.494 544.377 539.1 543.951 538.82 543.403C538.543 542.855 538.405 542.215 538.405 541.482C538.405 540.75 538.543 540.108 538.82 539.557C539.1 539.006 539.494 538.578 540.002 538.274C540.51 537.969 541.11 537.817 541.802 537.817C542.495 537.817 543.095 537.969 543.603 538.274C544.111 538.578 544.503 539.006 544.78 539.557C545.06 540.108 545.2 540.75 545.2 541.482C545.2 542.215 545.06 542.855 544.78 543.403C544.503 543.951 544.111 544.377 543.603 544.681C543.095 544.986 542.495 545.138 541.802 545.138ZM541.812 543.8C542.187 543.8 542.501 543.697 542.753 543.49C543.006 543.281 543.193 543.001 543.316 542.65C543.443 542.299 543.506 541.908 543.506 541.478C543.506 541.044 543.443 540.651 543.316 540.3C543.193 539.946 543.006 539.665 542.753 539.456C542.501 539.246 542.187 539.142 541.812 539.142C541.427 539.142 541.107 539.246 540.851 539.456C540.599 539.665 540.41 539.946 540.283 540.3C540.16 540.651 540.099 541.044 540.099 541.478C540.099 541.908 540.16 542.299 540.283 542.65C540.41 543.001 540.599 543.281 540.851 543.49C541.107 543.697 541.427 543.8 541.812 543.8Z" fill="#A0AEC0"/>
</g>
<g id="Bottom">
<g id="Base">
<path d="M0 552C0 550.895 0.895431 550 2 550H1006C1007.1 550 1008 550.895 1008 552V568H0V552Z" fill="#A3ACB1"/>
<path d="M0 552C0 550.895 0.895431 550 2 550H1006C1007.1 550 1008 550.895 1008 552V568H0V552Z" fill="url(#paint0_linear_235_960)"/>
</g>
<g id="Bottom Curve">
<path d="M0 568H1008L987.646 572.105C961.613 577.355 935.123 580 908.566 580H97.9089C68.724 580 39.6267 576.806 11.1367 570.475L0 568Z" fill="#647279"/>
<path d="M0 568H1008L987.646 572.105C961.613 577.355 935.123 580 908.566 580H97.9089C68.724 580 39.6267 576.806 11.1367 570.475L0 568Z" fill="url(#paint1_linear_235_960)"/>
</g>
<g id="Groove">
<path fill-rule="evenodd" clip-rule="evenodd" d="M421.033 550C421.547 557.818 428.052 564 436 564H573C580.948 564 587.453 557.818 587.967 550H421.033Z" fill="#96A1A8"/>
<path fill-rule="evenodd" clip-rule="evenodd" d="M421.033 550C421.547 557.818 428.052 564 436 564H573C580.948 564 587.453 557.818 587.967 550H421.033Z" fill="url(#paint2_linear_235_960)"/>
</g>
</g>
</g>
<defs>
<filter id="filter0_f_235_960" x="8" y="537" width="993" height="98" filterUnits="userSpaceOnUse" color-interpolation-filters="sRGB">
<feFlood flood-opacity="0" result="BackgroundImageFix"/>
<feBlend mode="normal" in="SourceGraphic" in2="BackgroundImageFix" result="shape"/>
<feGaussianBlur stdDeviation="22" result="effect1_foregroundBlur_235_960"/>
</filter>
<linearGradient id="paint0_linear_235_960" x1="-1.94452e-10" y1="559" x2="1008" y2="559" gradientUnits="userSpaceOnUse">
<stop stop-color="#0D1012"/>
<stop offset="0.0295345" stop-color="#CAD4DB"/>
<stop offset="0.0625" stop-color="#242729"/>
<stop offset="0.133609" stop-color="#A3ACB1"/>
<stop offset="0.865967" stop-color="#A3ACB1"/>
<stop offset="0.941937" stop-color="#242729"/>
<stop offset="0.971275" stop-color="#CAD4DB"/>
<stop offset="0.996436" stop-color="#0D1012"/>
</linearGradient>
<linearGradient id="paint1_linear_235_960" x1="504" y1="568" x2="504" y2="580" gradientUnits="userSpaceOnUse">
<stop stop-color="#7A7F83"/>
<stop offset="1" stop-color="#0B0B0E"/>
</linearGradient>
<linearGradient id="paint2_linear_235_960" x1="437.5" y1="558.5" x2="574.5" y2="558.5" gradientUnits="userSpaceOnUse">
<stop stop-color="#3C3C3C"/>
<stop offset="0.317518" stop-color="#3C3C3C" stop-opacity="0"/>
<stop offset="0.660584" stop-color="#3C3C3C" stop-opacity="0"/>
<stop offset="1" stop-color="#444444"/>
</linearGradient>
</defs>
</svg>
